HIERARCHY
ROOT Hips
{
	OFFSET 0.000000 71.427986 0.000000
	CHANNELS 6 Xposition Yposition Zposition Xrotation Yrotation Zrotation
	JOINT Pelvis
	{
		OFFSET 0.000000 0.000000 0.000000
		CHANNELS 3 Xrotation Yrotation Zrotation
		JOINT LeftUpLeg
		{
			OFFSET 6.797100 -2.508499 -1.318700
			CHANNELS 3 Xrotation Yrotation Zrotation
			JOINT LeftLeg
			{
				OFFSET 0.069008 -29.241863 0.690200
				CHANNELS 3 Xrotation Yrotation Zrotation
				JOINT LeftFoot
				{
					OFFSET -0.069008 -29.568123 -0.266800
					CHANNELS 3 Xrotation Yrotation Zrotation
					JOINT LeftToeBase
					{
						OFFSET 3.145500 -8.631000 16.059900
						CHANNELS 3 Xrotation Yrotation Zrotation
						End Site
						{
							OFFSET 0.000000 18.501587 0.000000
						}
					}
				}
			}
			JOINT Left_ShortSleeve
			{
				OFFSET 0.265923 -10.480953 1.153800
				CHANNELS 3 Xrotation Yrotation Zrotation
				End Site
				{
					OFFSET 1.725763 19.823879 0.000000
				}
			}
		}
		JOINT RightUpLeg
		{
			OFFSET -6.797100 -2.508499 -1.318700
			CHANNELS 3 Xrotation Yrotation Zrotation
			JOINT RightLeg
			{
				OFFSET -0.082453 -29.241932 0.688000
				CHANNELS 3 Xrotation Yrotation Zrotation
				JOINT RightFoot
				{
					OFFSET 0.082453 -29.568058 -0.264600
					CHANNELS 3 Xrotation Yrotation Zrotation
					JOINT RightToeBase
					{
						OFFSET -3.115300 -8.682800 16.113400
						CHANNELS 3 Xrotation Yrotation Zrotation
						End Site
						{
							OFFSET 0.000000 18.567114 0.000000
						}
					}
				}
			}
			JOINT Right_ShortSleeve
			{
				OFFSET -0.265923 -10.480953 1.153800
				CHANNELS 3 Xrotation Yrotation Zrotation
				End Site
				{
					OFFSET -1.725766 19.823910 0.000000
				}
			}
		}
	}
	JOINT Spine
	{
		OFFSET 0.000000 13.368103 0.470500
		CHANNELS 3 Xrotation Yrotation Zrotation
		JOINT Spine1
		{
			OFFSET 0.147000 13.837402 0.538800
			CHANNELS 3 Xrotation Yrotation Zrotation
			JOINT Spine2
			{
				OFFSET 0.168000 16.242897 -1.435500
				CHANNELS 3 Xrotation Yrotation Zrotation
				JOINT Neck
				{
					OFFSET 0.217200 18.631500 -1.679100
					CHANNELS 3 Xrotation Yrotation Zrotation
					JOINT Head
					{
						OFFSET 0.000000 6.599396 1.385900
						CHANNELS 3 Xrotation Yrotation Zrotation
						JOINT Hat
						{
							OFFSET -0.532200 27.220596 -10.096100
							CHANNELS 3 Xrotation Yrotation Zrotation
							End Site
							{
								OFFSET 0.000000 22.029861 0.000000
							}
						}
						JOINT HairD
						{
							OFFSET -10.777400 17.437393 -1.325900
							CHANNELS 3 Xrotation Yrotation Zrotation
							JOINT HairD1
							{
								OFFSET -3.290299 -11.051193 1.062200
								CHANNELS 3 Xrotation Yrotation Zrotation
								End Site
								{
									OFFSET 0.000000 11.579437 0.000000
								}
							}
						}
						JOINT HairB
						{
							OFFSET -10.777400 17.437393 1.467900
							CHANNELS 3 Xrotation Yrotation Zrotation
							JOINT HairB1
							{
								OFFSET -1.561200 -12.956299 3.590200
								CHANNELS 3 Xrotation Yrotation Zrotation
								End Site
								{
									OFFSET 0.000000 13.534866 0.000000
								}
							}
						}
						JOINT HairA
						{
							OFFSET 9.713100 17.437393 1.467900
							CHANNELS 3 Xrotation Yrotation Zrotation
							JOINT HairA1
							{
								OFFSET 1.561200 -12.956299 3.590200
								CHANNELS 3 Xrotation Yrotation Zrotation
								End Site
								{
									OFFSET 0.000000 13.534866 0.000000
								}
							}
						}
						JOINT HairC
						{
							OFFSET 9.713100 17.437393 -1.325900
							CHANNELS 3 Xrotation Yrotation Zrotation
							JOINT HairC1
							{
								OFFSET 3.290300 -11.051193 1.062200
								CHANNELS 3 Xrotation Yrotation Zrotation
								End Site
								{
									OFFSET 0.000000 11.579437 0.000000
								}
							}
						}
					}
				}
				JOINT LeftShoulder
				{
					OFFSET 5.101800 15.108002 -2.763700
					CHANNELS 3 Xrotation Yrotation Zrotation
					JOINT LeftArm
					{
						OFFSET 9.825497 2.506317 -1.597400
						CHANNELS 3 Xrotation Yrotation Zrotation
						JOINT LeftForeArm
						{
							OFFSET 21.966244 0.000000 0.000000
							CHANNELS 3 Xrotation Yrotation Zrotation
							JOINT LeftHand
							{
								OFFSET 33.879036 0.000000 0.000000
								CHANNELS 3 Xrotation Yrotation Zrotation
								JOINT LeftHandThumb1
								{
									OFFSET 6.715286 -2.359680 3.363841
									CHANNELS 3 Xrotation Yrotation Zrotation
									JOINT LeftHandThumb2
									{
										OFFSET 2.507072 -1.447464 1.447461
										CHANNELS 3 Xrotation Yrotation Zrotation
										JOINT LeftHandThumb3
										{
											OFFSET 2.898338 -1.673355 1.673357
											CHANNELS 3 Xrotation Yrotation Zrotation
											End Site
											{
												OFFSET -0.295959 3.727692 -0.131651
											}
										}
									}
								}
								JOINT LeftHandIndex1
								{
									OFFSET 14.190811 -0.254547 3.840278
									CHANNELS 3 Xrotation Yrotation Zrotation
									JOINT LeftHandIndex2
									{
										OFFSET 3.551727 0.000000 -0.000000
										CHANNELS 3 Xrotation Yrotation Zrotation
										JOINT LeftHandIndex3
										{
											OFFSET 2.894196 0.000000 0.000000
											CHANNELS 3 Xrotation Yrotation Zrotation
											End Site
											{
												OFFSET -1.000603 2.690872 0.366626
											}
										}
									}
								}
								JOINT LeftHandMiddle1
								{
									OFFSET 13.776489 0.000000 0.000000
									CHANNELS 3 Xrotation Yrotation Zrotation
									JOINT LeftHandMiddle2
									{
										OFFSET 3.438232 0.000000 0.000000
										CHANNELS 3 Xrotation Yrotation Zrotation
										JOINT LeftHandMiddle3
										{
											OFFSET 3.691551 0.000000 0.000000
											CHANNELS 3 Xrotation Yrotation Zrotation
											End Site
											{
												OFFSET -1.082298 3.499527 0.457670
											}
										}
									}
								}
								JOINT LeftHandRing1
								{
									OFFSET 13.966164 -0.268127 -3.067488
									CHANNELS 3 Xrotation Yrotation Zrotation
									JOINT LeftHandRing2
									{
										OFFSET 3.162567 0.000000 0.000000
										CHANNELS 3 Xrotation Yrotation Zrotation
										JOINT LeftHandRing3
										{
											OFFSET 3.324348 0.000000 0.000000
											CHANNELS 3 Xrotation Yrotation Zrotation
											End Site
											{
												OFFSET -0.861900 3.184998 0.405154
											}
										}
									}
								}
								JOINT LeftHandPinky1
								{
									OFFSET 13.131393 -0.168503 -5.746925
									CHANNELS 3 Xrotation Yrotation Zrotation
									JOINT LeftHandPinky2
									{
										OFFSET 2.849182 0.000000 0.000000
										CHANNELS 3 Xrotation Yrotation Zrotation
										JOINT LeftHandPinky3
										{
											OFFSET 2.805038 0.000000 0.000000
											CHANNELS 3 Xrotation Yrotation Zrotation
											End Site
											{
												OFFSET -0.882500 2.642609 0.325652
											}
										}
									}
								}
							}
							JOINT Left_Sleeve
							{
								OFFSET 6.592125 -0.646545 0.805568
								CHANNELS 3 Xrotation Yrotation Zrotation
								End Site
								{
									OFFSET -0.000179 20.275787 -0.000000
								}
							}
						}
					}
				}
				JOINT RightShoulder
				{
					OFFSET -5.731700 15.108002 -2.763700
					CHANNELS 3 Xrotation Yrotation Zrotation
					JOINT RightArm
					{
						OFFSET -9.825497 2.506317 -1.597400
						CHANNELS 3 Xrotation Yrotation Zrotation
						JOINT RightForeArm
						{
							OFFSET -21.966242 0.000000 0.000000
							CHANNELS 3 Xrotation Yrotation Zrotation
							JOINT RightHand
							{
								OFFSET -33.879032 0.000000 0.000000
								CHANNELS 3 Xrotation Yrotation Zrotation
								JOINT RightHandThumb1
								{
									OFFSET -6.715286 -2.359680 3.363841
									CHANNELS 3 Xrotation Yrotation Zrotation
									JOINT RightHandThumb2
									{
										OFFSET -2.507072 -1.447464 1.447461
										CHANNELS 3 Xrotation Yrotation Zrotation
										JOINT RightHandThumb3
										{
											OFFSET -2.898338 -1.673355 1.673357
											CHANNELS 3 Xrotation Yrotation Zrotation
											End Site
											{
												OFFSET 0.295959 3.727692 -0.131651
											}
										}
									}
								}
								JOINT RightHandIndex1
								{
									OFFSET -14.190811 -0.254547 3.840278
									CHANNELS 3 Xrotation Yrotation Zrotation
									JOINT RightHandIndex2
									{
										OFFSET -3.551727 0.000000 -0.000000
										CHANNELS 3 Xrotation Yrotation Zrotation
										JOINT RightHandIndex3
										{
											OFFSET -2.894196 0.000000 0.000000
											CHANNELS 3 Xrotation Yrotation Zrotation
											End Site
											{
												OFFSET 1.000603 2.690872 0.366626
											}
										}
									}
								}
								JOINT RightHandMiddle1
								{
									OFFSET -13.776489 0.000000 0.000000
									CHANNELS 3 Xrotation Yrotation Zrotation
									JOINT RightHandMiddle2
									{
										OFFSET -3.438232 0.000000 0.000000
										CHANNELS 3 Xrotation Yrotation Zrotation
										JOINT RightHandMiddle3
										{
											OFFSET -3.691551 0.000000 0.000000
											CHANNELS 3 Xrotation Yrotation Zrotation
											End Site
											{
												OFFSET 1.082298 3.499527 0.457670
											}
										}
									}
								}
								JOINT RightHandRing1
								{
									OFFSET -13.966164 -0.268127 -3.067488
									CHANNELS 3 Xrotation Yrotation Zrotation
									JOINT RightHandRing2
									{
										OFFSET -3.162567 0.000000 0.000000
										CHANNELS 3 Xrotation Yrotation Zrotation
										JOINT RightHandRing3
										{
											OFFSET -3.324348 0.000000 0.000000
											CHANNELS 3 Xrotation Yrotation Zrotation
											End Site
											{
												OFFSET 0.861900 3.184998 0.405154
											}
										}
									}
								}
								JOINT RightHandPinky1
								{
									OFFSET -13.131393 -0.168503 -5.746925
									CHANNELS 3 Xrotation Yrotation Zrotation
									JOINT RightHandPinky2
									{
										OFFSET -2.849182 0.000000 0.000000
										CHANNELS 3 Xrotation Yrotation Zrotation
										JOINT RightHandPinky3
										{
											OFFSET -2.805038 0.000000 0.000000
											CHANNELS 3 Xrotation Yrotation Zrotation
											End Site
											{
												OFFSET 0.882500 2.642609 0.325652
											}
										}
									}
								}
							}
							JOINT Right_Sleeve
							{
								OFFSET -6.592125 -0.646545 0.805568
								CHANNELS 3 Xrotation Yrotation Zrotation
								End Site
								{
									OFFSET 0.000179 20.275787 -0.000000
								}
							}
						}
					}
				}
				JOINT Bind_Right_JacketString
				{
					OFFSET -3.534800 11.969597 7.200700
					CHANNELS 3 Xrotation Yrotation Zrotation
					JOINT Bind_Right_JacketString1
					{
						OFFSET -0.319900 -6.102600 2.794100
						CHANNELS 3 Xrotation Yrotation Zrotation
						End Site
						{
							OFFSET 0.000000 6.719452 0.000000
						}
					}
				}
				JOINT Bind_Left_JacketString
				{
					OFFSET 2.904800 11.969597 7.200700
					CHANNELS 3 Xrotation Yrotation Zrotation
					JOINT Bind_Left_JacketString1
					{
						OFFSET 0.364800 -5.904503 3.186800
						CHANNELS 3 Xrotation Yrotation Zrotation
						End Site
						{
							OFFSET 0.000000 6.719513 0.000000
						}
					}
				}
				JOINT HairE
				{
					OFFSET 5.915200 17.612701 -11.592200
					CHANNELS 3 Xrotation Yrotation Zrotation
					JOINT HairE1
					{
						OFFSET 0.289200 -7.171898 -1.284500
						CHANNELS 3 Xrotation Yrotation Zrotation
						End Site
						{
							OFFSET 0.000000 7.291756 0.000000
						}
					}
				}
				JOINT HairF
				{
					OFFSET -0.864800 17.612701 -11.592200
					CHANNELS 3 Xrotation Yrotation Zrotation
					JOINT HairF1
					{
						OFFSET 0.000000 -14.087097 -2.127501
						CHANNELS 3 Xrotation Yrotation Zrotation
						End Site
						{
							OFFSET 0.000000 14.246841 0.000000
						}
					}
				}
				JOINT HairG
				{
					OFFSET -8.087700 17.612701 -11.592200
					CHANNELS 3 Xrotation Yrotation Zrotation
					JOINT HairG1
					{
						OFFSET -0.293600 -6.081398 -0.910100
						CHANNELS 3 Xrotation Yrotation Zrotation
						End Site
						{
							OFFSET 0.000000 6.156120 0.000000
						}
					}
				}
			}
		}
	}
	JOINT Pouch
	{
		OFFSET 0.000000 4.394501 10.847300
		CHANNELS 3 Xrotation Yrotation Zrotation
		End Site
		{
			OFFSET 0.000000 21.880577 0.000000
		}
	}
	JOINT Bag
	{
		OFFSET -13.229000 4.813004 -0.593300
		CHANNELS 3 Xrotation Yrotation Zrotation
		End Site
		{
			OFFSET 0.000000 21.880577 0.000000
		}
	}
	JOINT OccupyGuyFacialAnim_Joint
	{
		OFFSET 1.000000 -70.206398 -1.655000
		CHANNELS 3 Xrotation Yrotation Zrotation
		End Site
		{
			OFFSET 0.000000 21.880577 0.000000
		}
	}
}
MOTION
Frames: 5
Frame Time: 0.033333
-1.223803 64.348228 -0.170724 -72.687727 -98.387707 -75.006603 -0.000000 -0.000000 -0.000000 -39.114448 8.723464 27.430699 41.083789 -8.601218 1.370467 -10.420368 1.814577 -14.871318 0.000000 -0.000000 0.000000 -0.000001 0.000000 -0.000001 -40.673889 -5.176369 -10.351998 50.584050 -6.510086 0.024783 -15.543287 -1.834659 9.841655 -0.000000 0.000001 0.000000 0.000007 0.000000 -0.000000 5.096467 -2.931086 -0.952278 4.847007 -2.724706 -1.011893 4.872827 -2.670291 -1.025819 -6.470355 11.543121 1.332226 1.868900 69.226467 6.189762 -0.000000 -0.000001 0.000001 -0.000000 -0.000001 0.000001 -0.000000 -0.000001 0.000000 -0.000000 -0.000001 0.000001 -0.000000 0.000001 0.000001 -0.000000 -0.000001 0.000001 -0.000000 0.000001 0.000001 -0.000000 -0.000001 0.000001 -0.000000 -0.000001 0.000001 2.334449 -16.473651 5.405040 -58.657589 -59.148325 -60.618974 0.056706 -91.815815 0.056746 -1.362834 2.416323 38.308393 2.333995 -4.852042 -3.963498 13.533765 36.265876 -6.789662 -0.000002 0.000001 0.000002 2.878043 7.353409 -58.659659 6.385693 5.826640 -95.251865 0.000001 0.000004 -0.000001 2.878039 7.353398 -58.659666 6.420562 5.823370 -95.595232 -0.000001 0.000003 -0.000001 3.051714 7.454223 -60.629718 5.249927 5.820215 -84.092804 -0.000000 -0.000003 0.000001 2.878044 7.353406 -58.659673 3.100885 5.166445 -61.922222 -0.000002 0.000002 -0.000000 -0.000000 0.000001 -0.000002 2.128881 10.933914 -13.435721 -29.167814 -8.101119 18.902832 -0.000015 129.787733 0.000017 -48.886686 35.994356 -4.322210 2.454508 6.926597 5.617169 7.810720 -26.809483 -3.040610 -0.000000 -0.000001 -0.000001 2.770866 -6.512123 65.405379 4.589341 -4.656634 89.164718 0.000000 0.000002 0.000002 2.634503 -6.539983 74.809231 5.688710 -4.541738 102.810296 0.000003 0.000001 -0.000004 3.122509 -6.655031 70.080917 5.298692 -4.612891 97.926307 -0.000000 -0.000001 -0.000003 4.911917 -9.704398 53.806222 4.184459 -4.633196 84.167998 0.000001 0.000001 -0.000001 -0.000000 -0.000002 -0.000001 -0.000001 -0.000000 0.000000 0.000001 0.000000 0.000001 -0.000001 -0.000000 -0.000000 -0.000001 -0.000000 -0.000000 -0.000001 -0.000000 0.000000 0.000001 0.000000 0.000000 -0.000001 -0.000000 -0.000000 -0.000001 -0.000000 -0.000000 -0.000001 -0.000000 0.000000 0.000001 0.000000 0.000000 -0.000000 -0.000000 -0.000000 -0.000000 -0.000000 -0.000000 -0.000000 -0.000000 -0.000000 
-1.312550 64.251465 -0.032525 -66.318589 -98.822858 -67.918233 0.000001 -0.000000 -0.000000 -38.998235 9.364421 27.297949 41.665469 -8.065985 1.060195 -10.670670 1.878552 -15.111833 0.000000 -0.000000 -0.000000 -0.000002 -0.000001 -0.000001 -41.401099 -4.411209 -10.485507 51.169807 -5.771812 -0.653315 -15.347549 -1.890141 10.100997 0.000000 -0.000001 -0.000000 0.000001 -0.000001 0.000002 5.176115 -2.821200 -1.009619 4.975188 -2.575601 -1.012296 5.000300 -2.519484 -1.026303 -4.584348 11.717835 0.369595 0.117720 69.072364 6.429512 0.000000 0.000000 -0.000001 0.000000 0.000000 -0.000001 0.000000 0.000000 -0.000002 0.000000 0.000000 -0.000001 0.000000 -0.000001 0.000001 0.000000 0.000000 -0.000001 0.000000 -0.000001 0.000001 0.000000 0.000000 -0.000001 0.000000 0.000000 -0.000001 2.301863 -16.602957 4.871108 -56.290553 -60.538815 -59.061083 0.042748 -91.285731 0.042903 -1.629210 1.603156 38.792473 2.333995 -4.852047 -3.963516 13.533748 36.265897 -6.789623 -0.000000 0.000001 0.000000 2.878035 7.353421 -58.659673 6.385705 5.826644 -95.251851 0.000001 0.000002 -0.000003 2.878045 7.353417 -58.659659 6.420576 5.823370 -95.595252 0.000001 0.000003 -0.000001 3.051699 7.454223 -60.629711 5.249925 5.820220 -84.092811 -0.000000 -0.000001 -0.000000 2.878036 7.353417 -58.659666 3.100888 5.166452 -61.922222 0.000000 -0.000002 -0.000001 -0.000001 0.000001 -0.000003 2.129658 10.955021 -12.907481 -26.386233 -8.398787 19.060867 0.000005 130.132767 -0.000002 -47.150944 37.371745 -5.594897 2.454526 6.926593 5.617168 7.810727 -26.809483 -3.040593 -0.000003 0.000002 0.000001 2.770846 -6.512096 65.405393 4.589339 -4.656647 89.164705 -0.000000 0.000001 0.000000 2.634498 -6.539962 74.809225 5.688679 -4.541739 102.810268 0.000001 0.000004 -0.000002 3.122526 -6.655036 70.080937 5.298703 -4.612879 97.926300 -0.000002 -0.000002 -0.000005 4.911927 -9.704387 53.806198 4.184449 -4.633174 84.168025 -0.000002 0.000002 0.000003 -0.000000 0.000005 0.000000 -0.000000 -0.000000 -0.000000 -0.000000 -0.000001 -0.000000 -0.000000 -0.000000 -0.000000 -0.000000 -0.000000 -0.000000 -0.000000 -0.000000 -0.000000 -0.000000 -0.000001 -0.000000 -0.000000 -0.000000 -0.000000 -0.000000 -0.000000 -0.000000 -0.000000 -0.000000 -0.000000 -0.000000 -0.000001 -0.000000 0.000001 -0.000000 -0.000000 0.000001 -0.000000 -0.000000 0.000001 -0.000000 -0.000000 
-1.411713 64.179260 -0.075098 -59.691550 -99.515016 -60.586551 -0.000000 0.000001 -0.000000 -38.619047 10.026880 27.244060 41.807421 -7.313672 0.858522 -10.801167 1.953479 -15.620320 -0.000000 0.000001 -0.000000 -0.000001 -0.000001 -0.000001 -42.135813 -3.639141 -10.398511 51.719780 -4.964413 -1.274794 -15.211859 -1.980246 10.465720 -0.000000 0.000001 -0.000000 -0.000000 0.000000 -0.000000 5.266243 -2.730413 -1.075706 5.123590 -2.442126 -1.036396 5.148472 -2.378920 -1.052689 -2.435232 11.921085 -0.703859 -1.489944 68.858566 6.401943 -0.000000 -0.000002 -0.000002 -0.000000 -0.000002 -0.000002 -0.000000 -0.000002 -0.000003 -0.000000 -0.000002 -0.000002 -0.000000 -0.000002 -0.000000 -0.000000 -0.000002 -0.000002 -0.000000 -0.000002 -0.000000 -0.000000 -0.000002 -0.000002 -0.000000 -0.000002 -0.000002 2.287415 -16.937660 4.344948 -55.496824 -61.739685 -58.398671 0.008097 -90.486551 0.009031 -1.246725 0.326214 39.806295 2.334011 -4.852037 -3.963514 13.533753 36.265914 -6.789635 -0.000000 0.000002 -0.000001 2.878045 7.353409 -58.659659 6.385681 5.826659 -95.251865 0.000003 0.000000 -0.000002 2.878042 7.353398 -58.659659 6.420564 5.823364 -95.595232 -0.000000 0.000002 -0.000003 3.051704 7.454219 -60.629704 5.249930 5.820225 -84.092831 -0.000000 0.000005 -0.000000 2.878042 7.353406 -58.659659 3.100871 5.166422 -61.922229 -0.000004 0.000002 -0.000000 -0.000001 -0.000000 -0.000001 2.136693 11.010045 -12.524649 -25.461328 -9.301693 18.498063 0.000022 130.609336 -0.000020 -45.959370 37.896591 -5.802148 2.454508 6.926600 5.617169 7.810723 -26.809486 -3.040611 0.000001 -0.000001 -0.000003 2.770854 -6.512105 65.405379 4.589333 -4.656646 89.164691 -0.000001 -0.000004 0.000001 2.634504 -6.539983 74.809225 5.688689 -4.541726 102.810275 -0.000000 0.000000 -0.000001 3.122513 -6.655042 70.080944 5.298706 -4.612889 97.926300 -0.000003 -0.000002 -0.000001 4.911930 -9.704415 53.806222 4.184457 -4.633175 84.168018 0.000001 0.000000 -0.000001 -0.000000 -0.000001 -0.000000 -0.000002 0.000001 0.000000 -0.000002 -0.000000 0.000000 -0.000002 0.000001 0.000001 -0.000002 0.000001 0.000001 -0.000002 0.000001 0.000000 -0.000002 -0.000000 0.000001 -0.000002 0.000001 0.000001 -0.000002 0.000001 0.000001 -0.000002 0.000001 0.000000 -0.000002 -0.000000 0.000001 -0.000000 0.000001 -0.000000 -0.000000 0.000001 -0.000000 -0.000000 0.000001 -0.000000 
-1.515873 64.166924 -0.327546 -53.664205 -100.461974 -53.954755 -0.000000 0.000000 -0.000000 -37.970777 10.680834 27.331526 41.340628 -6.380959 0.766648 -10.624780 2.011191 -16.461627 0.000000 0.000000 0.000000 0.000000 0.000000 0.000001 -42.744451 -3.028589 -10.037265 52.051010 -4.148262 -1.727717 -15.295293 -2.041296 10.544123 0.000000 -0.000002 0.000000 0.000003 -0.000000 0.000000 5.363175 -2.687711 -1.069848 5.284263 -2.376537 -1.051976 5.310143 -2.300088 -1.073738 -0.071822 12.181189 -1.977473 -2.779325 68.568870 6.036740 -0.000001 0.000001 -0.000000 -0.000001 0.000001 -0.000000 -0.000001 0.000001 -0.000001 -0.000001 0.000001 -0.000000 0.000000 0.000000 -0.000000 -0.000001 0.000001 -0.000000 0.000000 0.000000 -0.000000 -0.000001 0.000001 -0.000000 -0.000001 0.000001 -0.000000 2.293935 -17.589675 3.770481 -55.280095 -62.401496 -58.030182 -0.074452 -89.861534 -0.075536 -0.522318 -0.573819 40.969568 2.333996 -4.852040 -3.963514 13.533744 36.265887 -6.789634 0.000003 0.000001 -0.000001 2.878043 7.353411 -58.659679 6.385698 5.826653 -95.251865 0.000001 0.000000 -0.000002 2.878047 7.353397 -58.659686 6.420544 5.823377 -95.595232 0.000002 0.000003 0.000001 3.051685 7.454217 -60.629711 5.249917 5.820208 -84.092804 0.000001 0.000001 0.000001 2.878041 7.353399 -58.659679 3.100863 5.166432 -61.922208 -0.000003 -0.000003 0.000001 0.000001 0.000001 -0.000002 2.140735 11.042108 -12.265696 -25.838966 -10.148011 17.583156 -0.000000 130.871042 0.000003 -45.778998 37.866661 -4.920378 2.454519 6.926585 5.617154 7.810725 -26.809468 -3.040600 -0.000000 0.000005 0.000000 2.770852 -6.512105 65.405379 4.589345 -4.656660 89.164698 -0.000002 -0.000000 -0.000003 2.634504 -6.539976 74.809231 5.688693 -4.541719 102.810296 0.000001 -0.000003 -0.000007 3.122533 -6.655047 70.080924 5.298717 -4.612866 97.926335 0.000000 0.000003 -0.000003 4.911925 -9.704398 53.806205 4.184459 -4.633179 84.168018 0.000002 0.000003 0.000004 -0.000000 -0.000003 -0.000000 0.000001 0.000001 0.000000 0.000001 0.000001 0.000000 0.000001 0.000001 0.000000 0.000001 0.000001 0.000000 0.000001 0.000001 0.000000 0.000001 0.000001 0.000000 0.000001 0.000001 0.000000 0.000001 0.000001 0.000000 0.000001 0.000001 0.000000 0.000001 0.000001 0.000000 -0.000000 0.000000 -0.000000 -0.000000 0.000000 -0.000000 -0.000000 0.000000 -0.000000 
-1.622818 64.252251 -0.794072 -48.982138 -101.548643 -48.787006 0.000001 -0.000000 0.000000 -36.981154 11.270506 27.473111 40.075541 -5.234839 0.774258 -9.996556 2.007653 -17.573150 -0.000000 0.000000 -0.000000 -0.000001 -0.000001 -0.000000 -43.120306 -2.797752 -9.558302 52.023427 -3.223253 -1.876267 -15.635811 -2.006546 10.015833 0.000000 0.000000 0.000000 0.000001 0.000000 -0.000000 5.469954 -2.745028 -0.943277 5.454618 -2.451862 -1.047321 5.484166 -2.356060 -1.079018 2.481828 12.515529 -3.572639 -3.936146 68.184781 5.532492 0.000002 0.000000 0.000002 0.000002 0.000000 0.000002 0.000002 0.000000 0.000001 0.000002 0.000000 0.000002 0.000002 0.000001 0.000001 0.000002 0.000000 0.000002 0.000002 0.000001 0.000001 0.000002 0.000000 0.000002 0.000002 0.000000 0.000002 2.313823 -18.502219 3.158976 -55.016702 -62.310340 -57.769856 -0.034688 -89.685937 -0.033352 0.388740 -0.615769 41.957978 2.334005 -4.852020 -3.963484 13.533764 36.265914 -6.789640 -0.000002 0.000002 0.000003 2.878033 7.353421 -58.659645 6.385678 5.826657 -95.251844 -0.000001 -0.000001 -0.000004 2.878033 7.353420 -58.659645 6.420564 5.823371 -95.595225 0.000001 -0.000001 0.000000 3.051712 7.454235 -60.629697 5.249916 5.820185 -84.092804 -0.000002 0.000003 -0.000001 2.878039 7.353423 -58.659645 3.100872 5.166431 -61.922235 -0.000001 0.000002 0.000003 -0.000002 -0.000001 0.000002 2.146359 11.071270 -12.148924 -26.875661 -10.544106 16.684453 0.000001 130.756458 0.000003 -46.686276 37.532873 -3.114601 2.454506 6.926613 5.617169 7.810728 -26.809488 -3.040604 -0.000003 -0.000002 0.000001 2.770850 -6.512094 65.405366 4.589339 -4.656646 89.164705 0.000001 0.000001 0.000001 2.634496 -6.539957 74.809218 5.688699 -4.541729 102.810289 0.000001 0.000002 -0.000004 3.122506 -6.655021 70.080903 5.298719 -4.612873 97.926328 0.000000 -0.000004 -0.000005 4.911928 -9.704405 53.806202 4.184470 -4.633167 84.167998 0.000001 -0.000003 -0.000002 -0.000000 0.000001 0.000001 -0.000002 0.000000 0.000000 0.000000 0.000001 0.000000 -0.000002 0.000000 0.000000 -0.000002 0.000000 0.000000 -0.000002 0.000000 0.000000 0.000000 0.000001 0.000000 -0.000002 0.000000 0.000000 -0.000002 0.000000 0.000000 -0.000002 0.000000 0.000000 0.000000 0.000001 0.000000 0.000001 -0.000000 0.000000 0.000001 -0.000000 0.000000 0.000001 -0.000000 0.000000 
